<svg width="114" height="20" fill="none" xmlns="http://www.w3.org/2000/svg"><path d="M18.763 6.896l-4.97-.72-2.22-4.494a.63.63 0 00-1.123 0L8.226 6.176l-4.969.72a.626.626 0 00-.346 1.067l3.595 3.498-.85 4.94a.623.623 0 00.572.728.627.627 0 00.337-.07l4.445-2.332 4.444 2.332a.624.624 0 00.908-.658l-.849-4.94 3.595-3.498a.623.623 0 00-.346-1.066zm23.047 0l-4.969-.72-2.221-4.494a.63.63 0 00-1.123 0l-2.222 4.494-4.97.72a.626.626 0 00-.346 1.067l3.596 3.498-.85 4.94a.623.623 0 00.572.728.627.627 0 00.336-.07l4.445-2.332 4.445 2.332a.624.624 0 00.908-.658l-.85-4.94 3.596-3.498a.624.624 0 00-.346-1.067zm23.049 0l-4.97-.72-2.221-4.494a.63.63 0 00-1.123 0l-2.222 4.494-4.97.72a.625.625 0 00-.346 1.067l3.596 3.498-.85 4.94a.622.622 0 00.572.728.627.627 0 00.336-.07l4.445-2.332 4.445 2.332a.624.624 0 00.908-.658l-.85-4.94 3.596-3.498a.624.624 0 00-.346-1.067zm23.048 0l-4.97-.72-2.221-4.494a.63.63 0 00-1.124 0l-2.221 4.494-4.97.72a.626.626 0 00-.346 1.067l3.596 3.498-.85 4.94a.623.623 0 00.572.728.627.627 0 00.336-.07l4.445-2.332 4.445 2.332a.624.624 0 00.908-.658l-.85-4.94 3.596-3.498a.623.623 0 00-.346-1.066zm23.048 0l-4.97-.72-2.221-4.494a.63.63 0 00-1.124 0l-2.221 4.494-4.97.72a.626.626 0 00-.346 1.067L98.7 11.46l-.85 4.94a.623.623 0 00.572.728.627.627 0 00.336-.07l4.445-2.332 4.445 2.332a.624.624 0 00.908-.658l-.849-4.94 3.595-3.498a.625.625 0 00-.346-1.067z" fill="#3FCB5D"/></svg>