<svg width="30" height="29" fill="none" xmlns="http://www.w3.org/2000/svg"><g clip-path="url(#clip0_245:26)"><path d="M15 28.019c8.284 0 15-6.074 15-13.567C30 6.96 23.284.886 15 .886 6.716.886 0 6.96 0 14.452 0 21.945 6.716 28.02 15 28.02z" fill="#65A2D9"/><path d="M23.028 8.269c-1.564 1.228-3.12 2.304-4.392 3.808-3.127 3.411-6.95 8.25-12.151 7.53L15.778 28c7.879-.364 14.15-6.226 14.22-13.427l-6.97-6.304z" fill="#3A7CA5"/><path d="M23.313 9.496a7.297 7.297 0 01-1.184.361c.448-.385.784-.866.974-1.403.054-.154-.13-.286-.283-.204a7.247 7.247 0 01-1.81.676.51.51 0 01-.43-.097 3.936 3.936 0 00-2.45-.836c-.39 0-.785.055-1.173.164-1.2.337-2.126 1.232-2.417 2.337a3.24 3.24 0 00-.088 1.233.113.113 0 01-.033.094.144.144 0 01-.115.041c-2.628-.22-4.998-1.366-6.672-3.224-.086-.094-.25-.083-.318.023a3.106 3.106 0 00-.5 1.683c0 .908.403 1.763 1.103 2.387a3.537 3.537 0 01-.845-.296c-.128-.064-.285.019-.287.151-.018 1.349.855 2.548 2.162 3.089h-.079c-.207 0-.417-.017-.624-.053-.144-.025-.265.099-.22.225.424 1.199 1.565 2.082 2.93 2.283a7.355 7.355 0 01-3.826 1.05H6.7a.28.28 0 00-.277.194c-.033.113.028.234.14.293a10.996 10.996 0 005.106 1.245c1.57 0 3.037-.282 4.363-.837a9.617 9.617 0 003.193-2.164 9.348 9.348 0 001.955-2.961 8.567 8.567 0 00.664-3.241v-.051c0-.172.086-.333.236-.444a6.917 6.917 0 001.472-1.46c.108-.146-.062-.33-.24-.258z" fill="#fff"/><path d="M23.313 9.496a7.299 7.299 0 01-1.184.361c.448-.385.784-.866.974-1.403.054-.154-.13-.286-.283-.204a7.249 7.249 0 01-1.81.676.51.51 0 01-.43-.097 3.936 3.936 0 00-2.45-.836c-.39 0-.785.055-1.172.164a3.555 3.555 0 00-1.992 1.407v10.889c.365-.108.72-.234 1.066-.379a9.617 9.617 0 003.193-2.163 9.35 9.35 0 001.955-2.961 8.568 8.568 0 00.664-3.241v-.051c0-.172.086-.334.236-.444a6.916 6.916 0 001.472-1.461c.108-.145-.062-.328-.24-.257z" fill="#D1D1D1"/></g><defs><clipPath id="clip0_245:26"><path fill="#fff" transform="translate(0 .886)" d="M0 0h30v27.133H0z"/></clipPath></defs></svg>