<svg width="114" height="20" viewBox="0 0 114 20" fill="none" xmlns="http://www.w3.org/2000/svg">
<path d="M18.7629 6.89649L13.7936 6.17579L11.5722 1.68165C11.5115 1.5586 11.4117 1.45899 11.2884 1.39844C10.9791 1.2461 10.6034 1.37305 10.4487 1.68165L8.22733 6.17579L3.25802 6.89649C3.12101 6.91602 2.99575 6.98048 2.89985 7.07813C2.78391 7.19705 2.72002 7.35704 2.72222 7.52294C2.72443 7.68884 2.79254 7.84709 2.91159 7.9629L6.50696 11.4609L5.65754 16.4004C5.63762 16.5153 5.65036 16.6335 5.69432 16.7415C5.73827 16.8496 5.81169 16.9432 5.90623 17.0117C6.00078 17.0802 6.11268 17.1209 6.22923 17.1292C6.34579 17.1375 6.46234 17.113 6.56567 17.0586L11.0105 14.7266L15.4552 17.0586C15.5766 17.1231 15.7175 17.1445 15.8526 17.1211C16.1931 17.0625 16.4221 16.7402 16.3634 16.4004L15.514 11.4609L19.1093 7.9629C19.2072 7.8672 19.2718 7.74219 19.2913 7.60548C19.3442 7.26368 19.1054 6.94727 18.7629 6.89649Z" fill="#3FCB5D"/>
<path d="M41.8108 6.89649L36.8414 6.17579L34.62 1.68165C34.5594 1.5586 34.4595 1.45899 34.3362 1.39844C34.027 1.2461 33.6512 1.37305 33.4966 1.68165L31.2752 6.17579L26.3059 6.89649C26.1689 6.91602 26.0436 6.98048 25.9477 7.07813C25.8318 7.19705 25.7679 7.35704 25.7701 7.52294C25.7723 7.68884 25.8404 7.84709 25.9594 7.9629L29.5548 11.4609L28.7054 16.4004C28.6855 16.5153 28.6982 16.6335 28.7422 16.7415C28.7861 16.8496 28.8595 16.9432 28.9541 17.0117C29.0486 17.0802 29.1605 17.1209 29.2771 17.1292C29.3936 17.1375 29.5102 17.113 29.6135 17.0586L34.0583 14.7266L38.5031 17.0586C38.6244 17.1231 38.7654 17.1445 38.9004 17.1211C39.241 17.0625 39.47 16.7402 39.4112 16.4004L38.5618 11.4609L42.1572 7.9629C42.255 7.8672 42.3196 7.74219 42.3392 7.60548C42.392 7.26368 42.1533 6.94727 41.8108 6.89649Z" fill="#3FCB5D"/>
<path d="M64.8587 6.89649L59.8894 6.17579L57.668 1.68165C57.6073 1.5586 57.5075 1.45899 57.3842 1.39844C57.075 1.2461 56.6992 1.37305 56.5446 1.68165L54.3232 6.17579L49.3538 6.89649C49.2168 6.91602 49.0916 6.98048 48.9957 7.07813C48.8797 7.19705 48.8158 7.35704 48.818 7.52294C48.8203 7.68884 48.8884 7.84709 49.0074 7.9629L52.6028 11.4609L51.7534 16.4004C51.7334 16.5153 51.7462 16.6335 51.7901 16.7415C51.8341 16.8496 51.9075 16.9432 52.0021 17.0117C52.0966 17.0802 52.2085 17.1209 52.3251 17.1292C52.4416 17.1375 52.5582 17.113 52.6615 17.0586L57.1063 14.7266L61.5511 17.0586C61.6724 17.1231 61.8133 17.1445 61.9484 17.1211C62.2889 17.0625 62.5179 16.7402 62.4592 16.4004L61.6098 11.4609L65.2052 7.9629C65.303 7.8672 65.3676 7.74219 65.3872 7.60548C65.44 7.26368 65.2012 6.94727 64.8587 6.89649Z" fill="#3FCB5D"/>
<path d="M87.9066 6.89649L82.9373 6.17579L80.7159 1.68165C80.6552 1.5586 80.5554 1.45899 80.4321 1.39844C80.1228 1.2461 79.747 1.37305 79.5924 1.68165L77.371 6.17579L72.4017 6.89649C72.2647 6.91602 72.1394 6.98048 72.0435 7.07813C71.9276 7.19705 71.8637 7.35704 71.8659 7.52294C71.8681 7.68884 71.9362 7.84709 72.0553 7.9629L75.6506 11.4609L74.8012 16.4004C74.7813 16.5153 74.794 16.6335 74.838 16.7415C74.882 16.8496 74.9554 16.9432 75.0499 17.0117C75.1445 17.0802 75.2564 17.1209 75.3729 17.1292C75.4895 17.1375 75.606 17.113 75.7094 17.0586L80.1541 14.7266L84.5989 17.0586C84.7203 17.1231 84.8612 17.1445 84.9962 17.1211C85.3368 17.0625 85.5658 16.7402 85.5071 16.4004L84.6576 11.4609L88.253 7.9629C88.3509 7.8672 88.4155 7.74219 88.435 7.60548C88.4879 7.26368 88.2491 6.94727 87.9066 6.89649Z" fill="#3FCB5D"/>
<path d="M110.955 6.89649L105.985 6.17579L103.764 1.68165C103.703 1.5586 103.603 1.45899 103.48 1.39844C103.171 1.2461 102.795 1.37305 102.64 1.68165L100.419 6.17579L95.4497 6.89649C95.3127 6.91602 95.1874 6.98048 95.0915 7.07813C94.9756 7.19705 94.9117 7.35704 94.9139 7.52294C94.9161 7.68884 94.9842 7.84709 95.1032 7.9629L98.6986 11.4609L97.8492 16.4004C97.8293 16.5153 97.842 16.6335 97.886 16.7415C97.9299 16.8496 98.0033 16.9432 98.0979 17.0117C98.1924 17.0802 98.3043 17.1209 98.4209 17.1292C98.5374 17.1375 98.654 17.113 98.7573 17.0586L103.202 14.7266L107.647 17.0586C107.768 17.1231 107.909 17.1445 108.044 17.1211C108.385 17.0625 108.614 16.7402 108.555 16.4004L107.706 11.4609L111.301 7.9629C111.399 7.8672 111.463 7.74219 111.483 7.60548C111.536 7.26368 111.297 6.94727 110.955 6.89649Z" fill="#3FCB5D"/>
</svg>
